<mxfile host="app.diagrams.net" modified="2022-07-22T06:37:18.308Z" agent="5.0 (Macintosh; Intel Mac OS X 10_15_7) AppleWebKit/537.36 (KHTML, like Gecko) Chrome/103.0.0.0 Safari/537.36" etag="NoCjDEaVCuGXr-RmHcBW" version="17.4.0" type="github">
  <diagram id="56rZmKUrKlHYK3YhyHMU" name="Page-1">
    <mxGraphModel dx="2156" dy="1389" grid="1" gridSize="10" guides="1" tooltips="1" connect="1" arrows="1" fold="1" page="1" pageScale="1" pageWidth="2339" pageHeight="3300" math="0" shadow="0">
      <root>
        <mxCell id="0" />
        <mxCell id="1" parent="0" />
        <mxCell id="DAJft8NeWxyAzrpdu8we-1" value="A" style="ellipse;whiteSpace=wrap;html=1;aspect=fixed;fontSize=24;" vertex="1" parent="1">
          <mxGeometry x="200" y="80" width="80" height="80" as="geometry" />
        </mxCell>
        <mxCell id="DAJft8NeWxyAzrpdu8we-7" value="B" style="ellipse;whiteSpace=wrap;html=1;aspect=fixed;fontSize=24;" vertex="1" parent="1">
          <mxGeometry x="320" y="80" width="80" height="80" as="geometry" />
        </mxCell>
        <mxCell id="DAJft8NeWxyAzrpdu8we-8" value="C" style="ellipse;whiteSpace=wrap;html=1;aspect=fixed;fontSize=24;" vertex="1" parent="1">
          <mxGeometry x="440" y="80" width="80" height="80" as="geometry" />
        </mxCell>
        <mxCell id="DAJft8NeWxyAzrpdu8we-9" value="D" style="ellipse;whiteSpace=wrap;html=1;aspect=fixed;fontSize=24;" vertex="1" parent="1">
          <mxGeometry x="560" y="80" width="80" height="80" as="geometry" />
        </mxCell>
        <mxCell id="DAJft8NeWxyAzrpdu8we-10" value="E" style="ellipse;whiteSpace=wrap;html=1;aspect=fixed;fontSize=24;" vertex="1" parent="1">
          <mxGeometry x="680" y="80" width="80" height="80" as="geometry" />
        </mxCell>
        <mxCell id="DAJft8NeWxyAzrpdu8we-18" value="A" style="ellipse;whiteSpace=wrap;html=1;aspect=fixed;fontSize=24;" vertex="1" parent="1">
          <mxGeometry x="200" y="200" width="80" height="80" as="geometry" />
        </mxCell>
        <mxCell id="DAJft8NeWxyAzrpdu8we-19" value="D" style="ellipse;whiteSpace=wrap;html=1;aspect=fixed;fontSize=24;" vertex="1" parent="1">
          <mxGeometry x="320" y="200" width="80" height="80" as="geometry" />
        </mxCell>
        <mxCell id="DAJft8NeWxyAzrpdu8we-20" value="C" style="ellipse;whiteSpace=wrap;html=1;aspect=fixed;fontSize=24;" vertex="1" parent="1">
          <mxGeometry x="440" y="200" width="80" height="80" as="geometry" />
        </mxCell>
        <mxCell id="DAJft8NeWxyAzrpdu8we-21" value="B" style="ellipse;whiteSpace=wrap;html=1;aspect=fixed;fontSize=24;" vertex="1" parent="1">
          <mxGeometry x="560" y="200" width="80" height="80" as="geometry" />
        </mxCell>
        <mxCell id="DAJft8NeWxyAzrpdu8we-22" value="F" style="ellipse;whiteSpace=wrap;html=1;aspect=fixed;fontSize=24;" vertex="1" parent="1">
          <mxGeometry x="680" y="200" width="80" height="80" as="geometry" />
        </mxCell>
        <mxCell id="DAJft8NeWxyAzrpdu8we-24" value="oldArray" style="text;html=1;align=center;verticalAlign=middle;resizable=0;points=[];autosize=1;strokeColor=none;fillColor=none;fontSize=24;" vertex="1" parent="1">
          <mxGeometry x="60" y="105" width="100" height="30" as="geometry" />
        </mxCell>
        <mxCell id="DAJft8NeWxyAzrpdu8we-26" value="newArray" style="text;html=1;align=center;verticalAlign=middle;resizable=0;points=[];autosize=1;strokeColor=none;fillColor=none;fontSize=24;" vertex="1" parent="1">
          <mxGeometry x="50" y="225" width="120" height="30" as="geometry" />
        </mxCell>
        <mxCell id="DAJft8NeWxyAzrpdu8we-54" value="" style="ellipse;whiteSpace=wrap;html=1;aspect=fixed;fontSize=24;fillColor=#d5e8d4;strokeColor=#82b366;" vertex="1" parent="1">
          <mxGeometry x="840" y="170" width="20" height="20" as="geometry" />
        </mxCell>
        <mxCell id="DAJft8NeWxyAzrpdu8we-55" value="&lt;font style=&quot;font-size: 10px&quot;&gt;无需操作&lt;/font&gt;" style="text;html=1;align=left;verticalAlign=middle;resizable=0;points=[];autosize=1;strokeColor=none;fillColor=none;fontSize=10;" vertex="1" parent="1">
          <mxGeometry x="870" y="170" width="60" height="20" as="geometry" />
        </mxCell>
        <mxCell id="DAJft8NeWxyAzrpdu8we-68" value="" style="ellipse;whiteSpace=wrap;html=1;aspect=fixed;fontSize=24;fillColor=#dae8fc;strokeColor=#6c8ebf;" vertex="1" parent="1">
          <mxGeometry x="840" y="200" width="20" height="20" as="geometry" />
        </mxCell>
        <mxCell id="DAJft8NeWxyAzrpdu8we-69" value="&lt;font style=&quot;font-size: 10px&quot;&gt;移动&lt;/font&gt;" style="text;html=1;align=left;verticalAlign=middle;resizable=0;points=[];autosize=1;strokeColor=none;fillColor=none;fontSize=10;" vertex="1" parent="1">
          <mxGeometry x="870" y="200" width="40" height="20" as="geometry" />
        </mxCell>
        <mxCell id="DAJft8NeWxyAzrpdu8we-74" value="" style="ellipse;whiteSpace=wrap;html=1;aspect=fixed;fontSize=24;fillColor=#f8cecc;strokeColor=#b85450;" vertex="1" parent="1">
          <mxGeometry x="840" y="260" width="20" height="20" as="geometry" />
        </mxCell>
        <mxCell id="DAJft8NeWxyAzrpdu8we-75" value="&lt;font style=&quot;font-size: 10px&quot;&gt;删除&lt;/font&gt;" style="text;html=1;align=left;verticalAlign=middle;resizable=0;points=[];autosize=1;strokeColor=none;fillColor=none;fontSize=10;" vertex="1" parent="1">
          <mxGeometry x="870" y="260" width="40" height="20" as="geometry" />
        </mxCell>
        <mxCell id="DAJft8NeWxyAzrpdu8we-77" value="&lt;font style=&quot;font-size: 10px&quot;&gt;图例&lt;/font&gt;" style="text;html=1;align=left;verticalAlign=middle;resizable=0;points=[];autosize=1;strokeColor=none;fillColor=none;fontSize=10;" vertex="1" parent="1">
          <mxGeometry x="840" y="140" width="40" height="20" as="geometry" />
        </mxCell>
        <mxCell id="DAJft8NeWxyAzrpdu8we-318" value="" style="ellipse;whiteSpace=wrap;html=1;aspect=fixed;fontSize=24;fillColor=#ffe6cc;strokeColor=#d79b00;" vertex="1" parent="1">
          <mxGeometry x="840" y="230" width="20" height="20" as="geometry" />
        </mxCell>
        <mxCell id="DAJft8NeWxyAzrpdu8we-319" value="插入" style="text;html=1;align=left;verticalAlign=middle;resizable=0;points=[];autosize=1;fontSize=10;" vertex="1" parent="1">
          <mxGeometry x="870" y="230" width="40" height="20" as="geometry" />
        </mxCell>
        <mxCell id="DAJft8NeWxyAzrpdu8we-320" value="A" style="ellipse;whiteSpace=wrap;html=1;aspect=fixed;fontSize=24;fillColor=#d5e8d4;strokeColor=#82b366;" vertex="1" parent="1">
          <mxGeometry x="200" y="400" width="80" height="80" as="geometry" />
        </mxCell>
        <mxCell id="DAJft8NeWxyAzrpdu8we-321" value="B" style="ellipse;whiteSpace=wrap;html=1;aspect=fixed;fontSize=24;" vertex="1" parent="1">
          <mxGeometry x="320" y="400" width="80" height="80" as="geometry" />
        </mxCell>
        <mxCell id="DAJft8NeWxyAzrpdu8we-322" value="C" style="ellipse;whiteSpace=wrap;html=1;aspect=fixed;fontSize=24;" vertex="1" parent="1">
          <mxGeometry x="440" y="400" width="80" height="80" as="geometry" />
        </mxCell>
        <mxCell id="DAJft8NeWxyAzrpdu8we-323" value="D" style="ellipse;whiteSpace=wrap;html=1;aspect=fixed;fontSize=24;" vertex="1" parent="1">
          <mxGeometry x="560" y="400" width="80" height="80" as="geometry" />
        </mxCell>
        <mxCell id="DAJft8NeWxyAzrpdu8we-324" value="E" style="ellipse;whiteSpace=wrap;html=1;aspect=fixed;fontSize=24;" vertex="1" parent="1">
          <mxGeometry x="680" y="400" width="80" height="80" as="geometry" />
        </mxCell>
        <mxCell id="DAJft8NeWxyAzrpdu8we-325" value="A" style="ellipse;whiteSpace=wrap;html=1;aspect=fixed;fontSize=24;fillColor=#d5e8d4;strokeColor=#82b366;" vertex="1" parent="1">
          <mxGeometry x="200" y="520" width="80" height="80" as="geometry" />
        </mxCell>
        <mxCell id="DAJft8NeWxyAzrpdu8we-326" value="D" style="ellipse;whiteSpace=wrap;html=1;aspect=fixed;fontSize=24;" vertex="1" parent="1">
          <mxGeometry x="320" y="520" width="80" height="80" as="geometry" />
        </mxCell>
        <mxCell id="DAJft8NeWxyAzrpdu8we-327" value="C" style="ellipse;whiteSpace=wrap;html=1;aspect=fixed;fontSize=24;" vertex="1" parent="1">
          <mxGeometry x="440" y="520" width="80" height="80" as="geometry" />
        </mxCell>
        <mxCell id="DAJft8NeWxyAzrpdu8we-328" value="B" style="ellipse;whiteSpace=wrap;html=1;aspect=fixed;fontSize=24;" vertex="1" parent="1">
          <mxGeometry x="560" y="520" width="80" height="80" as="geometry" />
        </mxCell>
        <mxCell id="DAJft8NeWxyAzrpdu8we-329" value="F" style="ellipse;whiteSpace=wrap;html=1;aspect=fixed;fontSize=24;" vertex="1" parent="1">
          <mxGeometry x="680" y="520" width="80" height="80" as="geometry" />
        </mxCell>
        <mxCell id="DAJft8NeWxyAzrpdu8we-330" value="oldArray" style="text;html=1;align=center;verticalAlign=middle;resizable=0;points=[];autosize=1;strokeColor=none;fillColor=none;fontSize=24;" vertex="1" parent="1">
          <mxGeometry x="60" y="425" width="100" height="30" as="geometry" />
        </mxCell>
        <mxCell id="DAJft8NeWxyAzrpdu8we-331" value="newArray" style="text;html=1;align=center;verticalAlign=middle;resizable=0;points=[];autosize=1;strokeColor=none;fillColor=none;fontSize=24;" vertex="1" parent="1">
          <mxGeometry x="50" y="545" width="120" height="30" as="geometry" />
        </mxCell>
        <mxCell id="DAJft8NeWxyAzrpdu8we-332" value="" style="ellipse;whiteSpace=wrap;html=1;aspect=fixed;fontSize=24;fillColor=#d5e8d4;strokeColor=#82b366;" vertex="1" parent="1">
          <mxGeometry x="840" y="490" width="20" height="20" as="geometry" />
        </mxCell>
        <mxCell id="DAJft8NeWxyAzrpdu8we-333" value="&lt;font style=&quot;font-size: 10px&quot;&gt;无需操作&lt;/font&gt;" style="text;html=1;align=left;verticalAlign=middle;resizable=0;points=[];autosize=1;strokeColor=none;fillColor=none;fontSize=10;" vertex="1" parent="1">
          <mxGeometry x="870" y="490" width="60" height="20" as="geometry" />
        </mxCell>
        <mxCell id="DAJft8NeWxyAzrpdu8we-334" value="" style="ellipse;whiteSpace=wrap;html=1;aspect=fixed;fontSize=24;fillColor=#dae8fc;strokeColor=#6c8ebf;" vertex="1" parent="1">
          <mxGeometry x="840" y="520" width="20" height="20" as="geometry" />
        </mxCell>
        <mxCell id="DAJft8NeWxyAzrpdu8we-335" value="&lt;font style=&quot;font-size: 10px&quot;&gt;移动&lt;/font&gt;" style="text;html=1;align=left;verticalAlign=middle;resizable=0;points=[];autosize=1;strokeColor=none;fillColor=none;fontSize=10;" vertex="1" parent="1">
          <mxGeometry x="870" y="520" width="40" height="20" as="geometry" />
        </mxCell>
        <mxCell id="DAJft8NeWxyAzrpdu8we-336" value="" style="ellipse;whiteSpace=wrap;html=1;aspect=fixed;fontSize=24;fillColor=#f8cecc;strokeColor=#b85450;" vertex="1" parent="1">
          <mxGeometry x="840" y="580" width="20" height="20" as="geometry" />
        </mxCell>
        <mxCell id="DAJft8NeWxyAzrpdu8we-337" value="&lt;font style=&quot;font-size: 10px&quot;&gt;删除&lt;/font&gt;" style="text;html=1;align=left;verticalAlign=middle;resizable=0;points=[];autosize=1;strokeColor=none;fillColor=none;fontSize=10;" vertex="1" parent="1">
          <mxGeometry x="870" y="580" width="40" height="20" as="geometry" />
        </mxCell>
        <mxCell id="DAJft8NeWxyAzrpdu8we-338" value="&lt;font style=&quot;font-size: 10px&quot;&gt;图例&lt;/font&gt;" style="text;html=1;align=left;verticalAlign=middle;resizable=0;points=[];autosize=1;strokeColor=none;fillColor=none;fontSize=10;" vertex="1" parent="1">
          <mxGeometry x="840" y="460" width="40" height="20" as="geometry" />
        </mxCell>
        <mxCell id="DAJft8NeWxyAzrpdu8we-339" value="" style="ellipse;whiteSpace=wrap;html=1;aspect=fixed;fontSize=24;fillColor=#ffe6cc;strokeColor=#d79b00;" vertex="1" parent="1">
          <mxGeometry x="840" y="550" width="20" height="20" as="geometry" />
        </mxCell>
        <mxCell id="DAJft8NeWxyAzrpdu8we-340" value="插入" style="text;html=1;align=left;verticalAlign=middle;resizable=0;points=[];autosize=1;fontSize=10;" vertex="1" parent="1">
          <mxGeometry x="870" y="550" width="40" height="20" as="geometry" />
        </mxCell>
        <mxCell id="DAJft8NeWxyAzrpdu8we-341" value="A" style="ellipse;whiteSpace=wrap;html=1;aspect=fixed;fontSize=24;fillColor=#d5e8d4;strokeColor=#82b366;" vertex="1" parent="1">
          <mxGeometry x="200" y="680" width="80" height="80" as="geometry" />
        </mxCell>
        <mxCell id="DAJft8NeWxyAzrpdu8we-342" value="B" style="ellipse;whiteSpace=wrap;html=1;aspect=fixed;fontSize=24;" vertex="1" parent="1">
          <mxGeometry x="320" y="680" width="80" height="80" as="geometry" />
        </mxCell>
        <mxCell id="DAJft8NeWxyAzrpdu8we-343" value="C" style="ellipse;whiteSpace=wrap;html=1;aspect=fixed;fontSize=24;" vertex="1" parent="1">
          <mxGeometry x="440" y="680" width="80" height="80" as="geometry" />
        </mxCell>
        <mxCell id="DAJft8NeWxyAzrpdu8we-344" value="D" style="ellipse;whiteSpace=wrap;html=1;aspect=fixed;fontSize=24;" vertex="1" parent="1">
          <mxGeometry x="560" y="680" width="80" height="80" as="geometry" />
        </mxCell>
        <mxCell id="DAJft8NeWxyAzrpdu8we-345" value="E" style="ellipse;whiteSpace=wrap;html=1;aspect=fixed;fontSize=24;" vertex="1" parent="1">
          <mxGeometry x="680" y="680" width="80" height="80" as="geometry" />
        </mxCell>
        <mxCell id="DAJft8NeWxyAzrpdu8we-346" value="A" style="ellipse;whiteSpace=wrap;html=1;aspect=fixed;fontSize=24;fillColor=#d5e8d4;strokeColor=#82b366;" vertex="1" parent="1">
          <mxGeometry x="200" y="800" width="80" height="80" as="geometry" />
        </mxCell>
        <mxCell id="DAJft8NeWxyAzrpdu8we-347" value="D" style="ellipse;whiteSpace=wrap;html=1;aspect=fixed;fontSize=24;" vertex="1" parent="1">
          <mxGeometry x="320" y="800" width="80" height="80" as="geometry" />
        </mxCell>
        <mxCell id="DAJft8NeWxyAzrpdu8we-348" value="C" style="ellipse;whiteSpace=wrap;html=1;aspect=fixed;fontSize=24;" vertex="1" parent="1">
          <mxGeometry x="440" y="800" width="80" height="80" as="geometry" />
        </mxCell>
        <mxCell id="DAJft8NeWxyAzrpdu8we-349" value="B" style="ellipse;whiteSpace=wrap;html=1;aspect=fixed;fontSize=24;" vertex="1" parent="1">
          <mxGeometry x="560" y="800" width="80" height="80" as="geometry" />
        </mxCell>
        <mxCell id="DAJft8NeWxyAzrpdu8we-350" value="F" style="ellipse;whiteSpace=wrap;html=1;aspect=fixed;fontSize=24;" vertex="1" parent="1">
          <mxGeometry x="680" y="800" width="80" height="80" as="geometry" />
        </mxCell>
        <mxCell id="DAJft8NeWxyAzrpdu8we-351" value="oldArray" style="text;html=1;align=center;verticalAlign=middle;resizable=0;points=[];autosize=1;strokeColor=none;fillColor=none;fontSize=24;" vertex="1" parent="1">
          <mxGeometry x="60" y="705" width="100" height="30" as="geometry" />
        </mxCell>
        <mxCell id="DAJft8NeWxyAzrpdu8we-352" value="newArray" style="text;html=1;align=center;verticalAlign=middle;resizable=0;points=[];autosize=1;strokeColor=none;fillColor=none;fontSize=24;" vertex="1" parent="1">
          <mxGeometry x="50" y="825" width="120" height="30" as="geometry" />
        </mxCell>
        <mxCell id="DAJft8NeWxyAzrpdu8we-353" value="" style="ellipse;whiteSpace=wrap;html=1;aspect=fixed;fontSize=24;fillColor=#d5e8d4;strokeColor=#82b366;" vertex="1" parent="1">
          <mxGeometry x="840" y="770" width="20" height="20" as="geometry" />
        </mxCell>
        <mxCell id="DAJft8NeWxyAzrpdu8we-354" value="&lt;font style=&quot;font-size: 10px&quot;&gt;无需操作&lt;/font&gt;" style="text;html=1;align=left;verticalAlign=middle;resizable=0;points=[];autosize=1;strokeColor=none;fillColor=none;fontSize=10;" vertex="1" parent="1">
          <mxGeometry x="870" y="770" width="60" height="20" as="geometry" />
        </mxCell>
        <mxCell id="DAJft8NeWxyAzrpdu8we-355" value="" style="ellipse;whiteSpace=wrap;html=1;aspect=fixed;fontSize=24;fillColor=#dae8fc;strokeColor=#6c8ebf;" vertex="1" parent="1">
          <mxGeometry x="840" y="800" width="20" height="20" as="geometry" />
        </mxCell>
        <mxCell id="DAJft8NeWxyAzrpdu8we-356" value="&lt;font style=&quot;font-size: 10px&quot;&gt;移动&lt;/font&gt;" style="text;html=1;align=left;verticalAlign=middle;resizable=0;points=[];autosize=1;strokeColor=none;fillColor=none;fontSize=10;" vertex="1" parent="1">
          <mxGeometry x="870" y="800" width="40" height="20" as="geometry" />
        </mxCell>
        <mxCell id="DAJft8NeWxyAzrpdu8we-357" value="" style="ellipse;whiteSpace=wrap;html=1;aspect=fixed;fontSize=24;fillColor=#f8cecc;strokeColor=#b85450;" vertex="1" parent="1">
          <mxGeometry x="840" y="860" width="20" height="20" as="geometry" />
        </mxCell>
        <mxCell id="DAJft8NeWxyAzrpdu8we-358" value="&lt;font style=&quot;font-size: 10px&quot;&gt;删除&lt;/font&gt;" style="text;html=1;align=left;verticalAlign=middle;resizable=0;points=[];autosize=1;strokeColor=none;fillColor=none;fontSize=10;" vertex="1" parent="1">
          <mxGeometry x="870" y="860" width="40" height="20" as="geometry" />
        </mxCell>
        <mxCell id="DAJft8NeWxyAzrpdu8we-359" value="&lt;font style=&quot;font-size: 10px&quot;&gt;图例&lt;/font&gt;" style="text;html=1;align=left;verticalAlign=middle;resizable=0;points=[];autosize=1;strokeColor=none;fillColor=none;fontSize=10;" vertex="1" parent="1">
          <mxGeometry x="840" y="740" width="40" height="20" as="geometry" />
        </mxCell>
        <mxCell id="DAJft8NeWxyAzrpdu8we-360" value="" style="ellipse;whiteSpace=wrap;html=1;aspect=fixed;fontSize=24;fillColor=#ffe6cc;strokeColor=#d79b00;" vertex="1" parent="1">
          <mxGeometry x="840" y="830" width="20" height="20" as="geometry" />
        </mxCell>
        <mxCell id="DAJft8NeWxyAzrpdu8we-361" value="插入" style="text;html=1;align=left;verticalAlign=middle;resizable=0;points=[];autosize=1;fontSize=10;" vertex="1" parent="1">
          <mxGeometry x="870" y="830" width="40" height="20" as="geometry" />
        </mxCell>
        <mxCell id="DAJft8NeWxyAzrpdu8we-362" value="A" style="ellipse;whiteSpace=wrap;html=1;aspect=fixed;fontSize=24;fillColor=#d5e8d4;strokeColor=#82b366;" vertex="1" parent="1">
          <mxGeometry x="200" y="1000" width="80" height="80" as="geometry" />
        </mxCell>
        <mxCell id="DAJft8NeWxyAzrpdu8we-363" value="" style="ellipse;whiteSpace=wrap;html=1;aspect=fixed;fontSize=24;dashed=1;" vertex="1" parent="1">
          <mxGeometry x="320" y="1000" width="80" height="80" as="geometry" />
        </mxCell>
        <mxCell id="DAJft8NeWxyAzrpdu8we-364" value="" style="ellipse;whiteSpace=wrap;html=1;aspect=fixed;fontSize=24;dashed=1;" vertex="1" parent="1">
          <mxGeometry x="440" y="1000" width="80" height="80" as="geometry" />
        </mxCell>
        <mxCell id="DAJft8NeWxyAzrpdu8we-365" value="D" style="ellipse;whiteSpace=wrap;html=1;aspect=fixed;fontSize=24;" vertex="1" parent="1">
          <mxGeometry x="560" y="1000" width="80" height="80" as="geometry" />
        </mxCell>
        <mxCell id="DAJft8NeWxyAzrpdu8we-366" value="" style="ellipse;whiteSpace=wrap;html=1;aspect=fixed;fontSize=24;dashed=1;" vertex="1" parent="1">
          <mxGeometry x="680" y="1000" width="80" height="80" as="geometry" />
        </mxCell>
        <mxCell id="DAJft8NeWxyAzrpdu8we-367" value="A" style="ellipse;whiteSpace=wrap;html=1;aspect=fixed;fontSize=24;fillColor=#d5e8d4;strokeColor=#82b366;" vertex="1" parent="1">
          <mxGeometry x="200" y="1120" width="80" height="80" as="geometry" />
        </mxCell>
        <mxCell id="DAJft8NeWxyAzrpdu8we-368" value="D" style="ellipse;whiteSpace=wrap;html=1;aspect=fixed;fontSize=24;" vertex="1" parent="1">
          <mxGeometry x="320" y="1120" width="80" height="80" as="geometry" />
        </mxCell>
        <mxCell id="DAJft8NeWxyAzrpdu8we-369" value="" style="ellipse;whiteSpace=wrap;html=1;aspect=fixed;fontSize=24;dashed=1;" vertex="1" parent="1">
          <mxGeometry x="440" y="1120" width="80" height="80" as="geometry" />
        </mxCell>
        <mxCell id="DAJft8NeWxyAzrpdu8we-370" value="" style="ellipse;whiteSpace=wrap;html=1;aspect=fixed;fontSize=24;dashed=1;" vertex="1" parent="1">
          <mxGeometry x="560" y="1120" width="80" height="80" as="geometry" />
        </mxCell>
        <mxCell id="DAJft8NeWxyAzrpdu8we-371" value="" style="ellipse;whiteSpace=wrap;html=1;aspect=fixed;fontSize=24;dashed=1;" vertex="1" parent="1">
          <mxGeometry x="680" y="1120" width="80" height="80" as="geometry" />
        </mxCell>
        <mxCell id="DAJft8NeWxyAzrpdu8we-372" value="oldArray" style="text;html=1;align=center;verticalAlign=middle;resizable=0;points=[];autosize=1;strokeColor=none;fillColor=none;fontSize=24;" vertex="1" parent="1">
          <mxGeometry x="60" y="1025" width="100" height="30" as="geometry" />
        </mxCell>
        <mxCell id="DAJft8NeWxyAzrpdu8we-373" value="newArray" style="text;html=1;align=center;verticalAlign=middle;resizable=0;points=[];autosize=1;strokeColor=none;fillColor=none;fontSize=24;" vertex="1" parent="1">
          <mxGeometry x="50" y="1145" width="120" height="30" as="geometry" />
        </mxCell>
        <mxCell id="DAJft8NeWxyAzrpdu8we-374" value="A" style="ellipse;whiteSpace=wrap;html=1;aspect=fixed;fontSize=24;fillColor=#d5e8d4;strokeColor=#82b366;" vertex="1" parent="1">
          <mxGeometry x="200" y="1320" width="80" height="80" as="geometry" />
        </mxCell>
        <mxCell id="DAJft8NeWxyAzrpdu8we-375" value="B" style="ellipse;whiteSpace=wrap;html=1;aspect=fixed;fontSize=24;" vertex="1" parent="1">
          <mxGeometry x="320" y="1320" width="80" height="80" as="geometry" />
        </mxCell>
        <mxCell id="DAJft8NeWxyAzrpdu8we-376" value="C" style="ellipse;whiteSpace=wrap;html=1;aspect=fixed;fontSize=24;" vertex="1" parent="1">
          <mxGeometry x="440" y="1320" width="80" height="80" as="geometry" />
        </mxCell>
        <mxCell id="DAJft8NeWxyAzrpdu8we-377" value="D" style="ellipse;whiteSpace=wrap;html=1;aspect=fixed;fontSize=24;fillColor=#d5e8d4;strokeColor=#82b366;" vertex="1" parent="1">
          <mxGeometry x="560" y="1320" width="80" height="80" as="geometry" />
        </mxCell>
        <mxCell id="DAJft8NeWxyAzrpdu8we-378" value="E" style="ellipse;whiteSpace=wrap;html=1;aspect=fixed;fontSize=24;" vertex="1" parent="1">
          <mxGeometry x="680" y="1320" width="80" height="80" as="geometry" />
        </mxCell>
        <mxCell id="DAJft8NeWxyAzrpdu8we-379" value="A" style="ellipse;whiteSpace=wrap;html=1;aspect=fixed;fontSize=24;fillColor=#d5e8d4;strokeColor=#82b366;" vertex="1" parent="1">
          <mxGeometry x="200" y="1440" width="80" height="80" as="geometry" />
        </mxCell>
        <mxCell id="DAJft8NeWxyAzrpdu8we-380" value="D" style="ellipse;whiteSpace=wrap;html=1;aspect=fixed;fontSize=24;fillColor=#d5e8d4;strokeColor=#82b366;" vertex="1" parent="1">
          <mxGeometry x="320" y="1440" width="80" height="80" as="geometry" />
        </mxCell>
        <mxCell id="DAJft8NeWxyAzrpdu8we-381" value="C" style="ellipse;whiteSpace=wrap;html=1;aspect=fixed;fontSize=24;" vertex="1" parent="1">
          <mxGeometry x="440" y="1440" width="80" height="80" as="geometry" />
        </mxCell>
        <mxCell id="DAJft8NeWxyAzrpdu8we-382" value="B" style="ellipse;whiteSpace=wrap;html=1;aspect=fixed;fontSize=24;" vertex="1" parent="1">
          <mxGeometry x="560" y="1440" width="80" height="80" as="geometry" />
        </mxCell>
        <mxCell id="DAJft8NeWxyAzrpdu8we-383" value="F" style="ellipse;whiteSpace=wrap;html=1;aspect=fixed;fontSize=24;" vertex="1" parent="1">
          <mxGeometry x="680" y="1440" width="80" height="80" as="geometry" />
        </mxCell>
        <mxCell id="DAJft8NeWxyAzrpdu8we-384" value="oldArray" style="text;html=1;align=center;verticalAlign=middle;resizable=0;points=[];autosize=1;strokeColor=none;fillColor=none;fontSize=24;" vertex="1" parent="1">
          <mxGeometry x="60" y="1345" width="100" height="30" as="geometry" />
        </mxCell>
        <mxCell id="DAJft8NeWxyAzrpdu8we-385" value="newArray" style="text;html=1;align=center;verticalAlign=middle;resizable=0;points=[];autosize=1;strokeColor=none;fillColor=none;fontSize=24;" vertex="1" parent="1">
          <mxGeometry x="50" y="1465" width="120" height="30" as="geometry" />
        </mxCell>
        <mxCell id="DAJft8NeWxyAzrpdu8we-386" value="" style="shape=flexArrow;endArrow=classic;html=1;rounded=0;fontSize=10;strokeWidth=2;verticalAlign=middle;" edge="1" parent="1">
          <mxGeometry width="50" height="50" relative="1" as="geometry">
            <mxPoint x="480" y="890" as="sourcePoint" />
            <mxPoint x="480" y="990" as="targetPoint" />
          </mxGeometry>
        </mxCell>
        <mxCell id="DAJft8NeWxyAzrpdu8we-391" value="相对位置" style="edgeLabel;html=1;align=center;verticalAlign=middle;resizable=0;points=[];fontSize=24;" vertex="1" connectable="0" parent="DAJft8NeWxyAzrpdu8we-386">
          <mxGeometry x="-0.2106" y="-3" relative="1" as="geometry">
            <mxPoint x="3" as="offset" />
          </mxGeometry>
        </mxCell>
        <mxCell id="DAJft8NeWxyAzrpdu8we-395" value="" style="shape=flexArrow;endArrow=classic;html=1;rounded=0;fontSize=10;strokeWidth=2;verticalAlign=middle;" edge="1" parent="1">
          <mxGeometry width="50" height="50" relative="1" as="geometry">
            <mxPoint x="479.7" y="1210" as="sourcePoint" />
            <mxPoint x="479.7" y="1310" as="targetPoint" />
          </mxGeometry>
        </mxCell>
        <mxCell id="DAJft8NeWxyAzrpdu8we-396" value="最终结果" style="edgeLabel;html=1;align=center;verticalAlign=middle;resizable=0;points=[];fontSize=24;" vertex="1" connectable="0" parent="DAJft8NeWxyAzrpdu8we-395">
          <mxGeometry x="-0.2106" y="-3" relative="1" as="geometry">
            <mxPoint x="3" as="offset" />
          </mxGeometry>
        </mxCell>
        <mxCell id="DAJft8NeWxyAzrpdu8we-399" value="A" style="ellipse;whiteSpace=wrap;html=1;aspect=fixed;fontSize=24;fillColor=#d5e8d4;strokeColor=#82b366;" vertex="1" parent="1">
          <mxGeometry x="200" y="1640" width="80" height="80" as="geometry" />
        </mxCell>
        <mxCell id="DAJft8NeWxyAzrpdu8we-400" value="B" style="ellipse;whiteSpace=wrap;html=1;aspect=fixed;fontSize=24;" vertex="1" parent="1">
          <mxGeometry x="320" y="1640" width="80" height="80" as="geometry" />
        </mxCell>
        <mxCell id="DAJft8NeWxyAzrpdu8we-401" value="C" style="ellipse;whiteSpace=wrap;html=1;aspect=fixed;fontSize=24;" vertex="1" parent="1">
          <mxGeometry x="440" y="1640" width="80" height="80" as="geometry" />
        </mxCell>
        <mxCell id="DAJft8NeWxyAzrpdu8we-402" value="D" style="ellipse;whiteSpace=wrap;html=1;aspect=fixed;fontSize=24;fillColor=#d5e8d4;strokeColor=#82b366;" vertex="1" parent="1">
          <mxGeometry x="560" y="1640" width="80" height="80" as="geometry" />
        </mxCell>
        <mxCell id="DAJft8NeWxyAzrpdu8we-403" value="E" style="ellipse;whiteSpace=wrap;html=1;aspect=fixed;fontSize=24;" vertex="1" parent="1">
          <mxGeometry x="680" y="1640" width="80" height="80" as="geometry" />
        </mxCell>
        <mxCell id="DAJft8NeWxyAzrpdu8we-404" value="A" style="ellipse;whiteSpace=wrap;html=1;aspect=fixed;fontSize=24;fillColor=#d5e8d4;strokeColor=#82b366;" vertex="1" parent="1">
          <mxGeometry x="200" y="1760" width="80" height="80" as="geometry" />
        </mxCell>
        <mxCell id="DAJft8NeWxyAzrpdu8we-405" value="D" style="ellipse;whiteSpace=wrap;html=1;aspect=fixed;fontSize=24;fillColor=#d5e8d4;strokeColor=#82b366;" vertex="1" parent="1">
          <mxGeometry x="320" y="1760" width="80" height="80" as="geometry" />
        </mxCell>
        <mxCell id="DAJft8NeWxyAzrpdu8we-406" value="C" style="ellipse;whiteSpace=wrap;html=1;aspect=fixed;fontSize=24;" vertex="1" parent="1">
          <mxGeometry x="440" y="1760" width="80" height="80" as="geometry" />
        </mxCell>
        <mxCell id="DAJft8NeWxyAzrpdu8we-407" value="B" style="ellipse;whiteSpace=wrap;html=1;aspect=fixed;fontSize=24;" vertex="1" parent="1">
          <mxGeometry x="560" y="1760" width="80" height="80" as="geometry" />
        </mxCell>
        <mxCell id="DAJft8NeWxyAzrpdu8we-408" value="F" style="ellipse;whiteSpace=wrap;html=1;aspect=fixed;fontSize=24;" vertex="1" parent="1">
          <mxGeometry x="680" y="1760" width="80" height="80" as="geometry" />
        </mxCell>
        <mxCell id="DAJft8NeWxyAzrpdu8we-409" value="oldArray" style="text;html=1;align=center;verticalAlign=middle;resizable=0;points=[];autosize=1;strokeColor=none;fillColor=none;fontSize=24;" vertex="1" parent="1">
          <mxGeometry x="60" y="1665" width="100" height="30" as="geometry" />
        </mxCell>
        <mxCell id="DAJft8NeWxyAzrpdu8we-410" value="newArray" style="text;html=1;align=center;verticalAlign=middle;resizable=0;points=[];autosize=1;strokeColor=none;fillColor=none;fontSize=24;" vertex="1" parent="1">
          <mxGeometry x="50" y="1785" width="120" height="30" as="geometry" />
        </mxCell>
        <mxCell id="DAJft8NeWxyAzrpdu8we-411" value="" style="ellipse;whiteSpace=wrap;html=1;aspect=fixed;fontSize=24;fillColor=#d5e8d4;strokeColor=#82b366;" vertex="1" parent="1">
          <mxGeometry x="840" y="1730" width="20" height="20" as="geometry" />
        </mxCell>
        <mxCell id="DAJft8NeWxyAzrpdu8we-412" value="&lt;font style=&quot;font-size: 10px&quot;&gt;无需操作&lt;/font&gt;" style="text;html=1;align=left;verticalAlign=middle;resizable=0;points=[];autosize=1;strokeColor=none;fillColor=none;fontSize=10;" vertex="1" parent="1">
          <mxGeometry x="870" y="1730" width="60" height="20" as="geometry" />
        </mxCell>
        <mxCell id="DAJft8NeWxyAzrpdu8we-413" value="" style="ellipse;whiteSpace=wrap;html=1;aspect=fixed;fontSize=24;fillColor=#dae8fc;strokeColor=#6c8ebf;" vertex="1" parent="1">
          <mxGeometry x="840" y="1760" width="20" height="20" as="geometry" />
        </mxCell>
        <mxCell id="DAJft8NeWxyAzrpdu8we-414" value="&lt;font style=&quot;font-size: 10px&quot;&gt;移动&lt;/font&gt;" style="text;html=1;align=left;verticalAlign=middle;resizable=0;points=[];autosize=1;strokeColor=none;fillColor=none;fontSize=10;" vertex="1" parent="1">
          <mxGeometry x="870" y="1760" width="40" height="20" as="geometry" />
        </mxCell>
        <mxCell id="DAJft8NeWxyAzrpdu8we-415" value="" style="ellipse;whiteSpace=wrap;html=1;aspect=fixed;fontSize=24;fillColor=#f8cecc;strokeColor=#b85450;" vertex="1" parent="1">
          <mxGeometry x="840" y="1820" width="20" height="20" as="geometry" />
        </mxCell>
        <mxCell id="DAJft8NeWxyAzrpdu8we-416" value="&lt;font style=&quot;font-size: 10px&quot;&gt;删除&lt;/font&gt;" style="text;html=1;align=left;verticalAlign=middle;resizable=0;points=[];autosize=1;strokeColor=none;fillColor=none;fontSize=10;" vertex="1" parent="1">
          <mxGeometry x="870" y="1820" width="40" height="20" as="geometry" />
        </mxCell>
        <mxCell id="DAJft8NeWxyAzrpdu8we-417" value="&lt;font style=&quot;font-size: 10px&quot;&gt;图例&lt;/font&gt;" style="text;html=1;align=left;verticalAlign=middle;resizable=0;points=[];autosize=1;strokeColor=none;fillColor=none;fontSize=10;" vertex="1" parent="1">
          <mxGeometry x="840" y="1700" width="40" height="20" as="geometry" />
        </mxCell>
        <mxCell id="DAJft8NeWxyAzrpdu8we-418" value="" style="ellipse;whiteSpace=wrap;html=1;aspect=fixed;fontSize=24;fillColor=#ffe6cc;strokeColor=#d79b00;" vertex="1" parent="1">
          <mxGeometry x="840" y="1790" width="20" height="20" as="geometry" />
        </mxCell>
        <mxCell id="DAJft8NeWxyAzrpdu8we-419" value="插入" style="text;html=1;align=left;verticalAlign=middle;resizable=0;points=[];autosize=1;fontSize=10;" vertex="1" parent="1">
          <mxGeometry x="870" y="1790" width="40" height="20" as="geometry" />
        </mxCell>
        <mxCell id="DAJft8NeWxyAzrpdu8we-420" value="" style="ellipse;whiteSpace=wrap;html=1;aspect=fixed;fontSize=24;fillColor=#d5e8d4;strokeColor=#82b366;dashed=1;" vertex="1" parent="1">
          <mxGeometry x="200" y="1960" width="80" height="80" as="geometry" />
        </mxCell>
        <mxCell id="DAJft8NeWxyAzrpdu8we-421" value="" style="ellipse;whiteSpace=wrap;html=1;aspect=fixed;fontSize=24;dashed=1;" vertex="1" parent="1">
          <mxGeometry x="320" y="1960" width="80" height="80" as="geometry" />
        </mxCell>
        <mxCell id="DAJft8NeWxyAzrpdu8we-422" value="C" style="ellipse;whiteSpace=wrap;html=1;aspect=fixed;fontSize=24;" vertex="1" parent="1">
          <mxGeometry x="440" y="1960" width="80" height="80" as="geometry" />
        </mxCell>
        <mxCell id="DAJft8NeWxyAzrpdu8we-423" value="D" style="ellipse;whiteSpace=wrap;html=1;aspect=fixed;fontSize=24;fillColor=#d5e8d4;strokeColor=#82b366;" vertex="1" parent="1">
          <mxGeometry x="560" y="1960" width="80" height="80" as="geometry" />
        </mxCell>
        <mxCell id="DAJft8NeWxyAzrpdu8we-424" value="" style="ellipse;whiteSpace=wrap;html=1;aspect=fixed;fontSize=24;dashed=1;" vertex="1" parent="1">
          <mxGeometry x="680" y="1960" width="80" height="80" as="geometry" />
        </mxCell>
        <mxCell id="DAJft8NeWxyAzrpdu8we-425" value="" style="ellipse;whiteSpace=wrap;html=1;aspect=fixed;fontSize=24;fillColor=#d5e8d4;strokeColor=#82b366;dashed=1;" vertex="1" parent="1">
          <mxGeometry x="200" y="2080" width="80" height="80" as="geometry" />
        </mxCell>
        <mxCell id="DAJft8NeWxyAzrpdu8we-426" value="D" style="ellipse;whiteSpace=wrap;html=1;aspect=fixed;fontSize=24;fillColor=#d5e8d4;strokeColor=#82b366;" vertex="1" parent="1">
          <mxGeometry x="320" y="2080" width="80" height="80" as="geometry" />
        </mxCell>
        <mxCell id="DAJft8NeWxyAzrpdu8we-427" value="C" style="ellipse;whiteSpace=wrap;html=1;aspect=fixed;fontSize=24;" vertex="1" parent="1">
          <mxGeometry x="440" y="2080" width="80" height="80" as="geometry" />
        </mxCell>
        <mxCell id="DAJft8NeWxyAzrpdu8we-428" value="" style="ellipse;whiteSpace=wrap;html=1;aspect=fixed;fontSize=24;dashed=1;" vertex="1" parent="1">
          <mxGeometry x="560" y="2080" width="80" height="80" as="geometry" />
        </mxCell>
        <mxCell id="DAJft8NeWxyAzrpdu8we-429" value="" style="ellipse;whiteSpace=wrap;html=1;aspect=fixed;fontSize=24;dashed=1;" vertex="1" parent="1">
          <mxGeometry x="680" y="2080" width="80" height="80" as="geometry" />
        </mxCell>
        <mxCell id="DAJft8NeWxyAzrpdu8we-430" value="oldArray" style="text;html=1;align=center;verticalAlign=middle;resizable=0;points=[];autosize=1;strokeColor=none;fillColor=none;fontSize=24;" vertex="1" parent="1">
          <mxGeometry x="60" y="1985" width="100" height="30" as="geometry" />
        </mxCell>
        <mxCell id="DAJft8NeWxyAzrpdu8we-431" value="newArray" style="text;html=1;align=center;verticalAlign=middle;resizable=0;points=[];autosize=1;strokeColor=none;fillColor=none;fontSize=24;" vertex="1" parent="1">
          <mxGeometry x="50" y="2105" width="120" height="30" as="geometry" />
        </mxCell>
        <mxCell id="DAJft8NeWxyAzrpdu8we-432" value="A" style="ellipse;whiteSpace=wrap;html=1;aspect=fixed;fontSize=24;fillColor=#d5e8d4;strokeColor=#82b366;" vertex="1" parent="1">
          <mxGeometry x="200" y="2280" width="80" height="80" as="geometry" />
        </mxCell>
        <mxCell id="DAJft8NeWxyAzrpdu8we-433" value="B" style="ellipse;whiteSpace=wrap;html=1;aspect=fixed;fontSize=24;" vertex="1" parent="1">
          <mxGeometry x="320" y="2280" width="80" height="80" as="geometry" />
        </mxCell>
        <mxCell id="DAJft8NeWxyAzrpdu8we-434" value="C" style="ellipse;whiteSpace=wrap;html=1;aspect=fixed;fontSize=24;fillColor=#dae8fc;strokeColor=#6c8ebf;" vertex="1" parent="1">
          <mxGeometry x="440" y="2280" width="80" height="80" as="geometry" />
        </mxCell>
        <mxCell id="DAJft8NeWxyAzrpdu8we-435" value="D" style="ellipse;whiteSpace=wrap;html=1;aspect=fixed;fontSize=24;fillColor=#d5e8d4;strokeColor=#82b366;" vertex="1" parent="1">
          <mxGeometry x="560" y="2280" width="80" height="80" as="geometry" />
        </mxCell>
        <mxCell id="DAJft8NeWxyAzrpdu8we-436" value="E" style="ellipse;whiteSpace=wrap;html=1;aspect=fixed;fontSize=24;" vertex="1" parent="1">
          <mxGeometry x="680" y="2280" width="80" height="80" as="geometry" />
        </mxCell>
        <mxCell id="DAJft8NeWxyAzrpdu8we-437" value="A" style="ellipse;whiteSpace=wrap;html=1;aspect=fixed;fontSize=24;fillColor=#d5e8d4;strokeColor=#82b366;" vertex="1" parent="1">
          <mxGeometry x="200" y="2400" width="80" height="80" as="geometry" />
        </mxCell>
        <mxCell id="DAJft8NeWxyAzrpdu8we-438" value="D" style="ellipse;whiteSpace=wrap;html=1;aspect=fixed;fontSize=24;fillColor=#d5e8d4;strokeColor=#82b366;" vertex="1" parent="1">
          <mxGeometry x="320" y="2400" width="80" height="80" as="geometry" />
        </mxCell>
        <mxCell id="DAJft8NeWxyAzrpdu8we-439" value="C" style="ellipse;whiteSpace=wrap;html=1;aspect=fixed;fontSize=24;fillColor=#dae8fc;strokeColor=#6c8ebf;" vertex="1" parent="1">
          <mxGeometry x="440" y="2400" width="80" height="80" as="geometry" />
        </mxCell>
        <mxCell id="DAJft8NeWxyAzrpdu8we-440" value="B" style="ellipse;whiteSpace=wrap;html=1;aspect=fixed;fontSize=24;" vertex="1" parent="1">
          <mxGeometry x="560" y="2400" width="80" height="80" as="geometry" />
        </mxCell>
        <mxCell id="DAJft8NeWxyAzrpdu8we-441" value="F" style="ellipse;whiteSpace=wrap;html=1;aspect=fixed;fontSize=24;" vertex="1" parent="1">
          <mxGeometry x="680" y="2400" width="80" height="80" as="geometry" />
        </mxCell>
        <mxCell id="DAJft8NeWxyAzrpdu8we-442" value="oldArray" style="text;html=1;align=center;verticalAlign=middle;resizable=0;points=[];autosize=1;strokeColor=none;fillColor=none;fontSize=24;" vertex="1" parent="1">
          <mxGeometry x="60" y="2305" width="100" height="30" as="geometry" />
        </mxCell>
        <mxCell id="DAJft8NeWxyAzrpdu8we-443" value="newArray" style="text;html=1;align=center;verticalAlign=middle;resizable=0;points=[];autosize=1;strokeColor=none;fillColor=none;fontSize=24;" vertex="1" parent="1">
          <mxGeometry x="50" y="2425" width="120" height="30" as="geometry" />
        </mxCell>
        <mxCell id="DAJft8NeWxyAzrpdu8we-444" value="" style="shape=flexArrow;endArrow=classic;html=1;rounded=0;fontSize=10;strokeWidth=2;verticalAlign=middle;" edge="1" parent="1">
          <mxGeometry width="50" height="50" relative="1" as="geometry">
            <mxPoint x="480" y="1850" as="sourcePoint" />
            <mxPoint x="480" y="1950" as="targetPoint" />
          </mxGeometry>
        </mxCell>
        <mxCell id="DAJft8NeWxyAzrpdu8we-445" value="相对位置" style="edgeLabel;html=1;align=center;verticalAlign=middle;resizable=0;points=[];fontSize=24;" vertex="1" connectable="0" parent="DAJft8NeWxyAzrpdu8we-444">
          <mxGeometry x="-0.2106" y="-3" relative="1" as="geometry">
            <mxPoint x="3" as="offset" />
          </mxGeometry>
        </mxCell>
        <mxCell id="DAJft8NeWxyAzrpdu8we-446" value="" style="shape=flexArrow;endArrow=classic;html=1;rounded=0;fontSize=10;strokeWidth=2;verticalAlign=middle;" edge="1" parent="1">
          <mxGeometry width="50" height="50" relative="1" as="geometry">
            <mxPoint x="479.6999999999998" y="2170" as="sourcePoint" />
            <mxPoint x="479.6999999999998" y="2270" as="targetPoint" />
          </mxGeometry>
        </mxCell>
        <mxCell id="DAJft8NeWxyAzrpdu8we-447" value="最终结果" style="edgeLabel;html=1;align=center;verticalAlign=middle;resizable=0;points=[];fontSize=24;" vertex="1" connectable="0" parent="DAJft8NeWxyAzrpdu8we-446">
          <mxGeometry x="-0.2106" y="-3" relative="1" as="geometry">
            <mxPoint x="3" as="offset" />
          </mxGeometry>
        </mxCell>
        <mxCell id="DAJft8NeWxyAzrpdu8we-449" value="A" style="ellipse;whiteSpace=wrap;html=1;aspect=fixed;fontSize=24;fillColor=#d5e8d4;strokeColor=#82b366;" vertex="1" parent="1">
          <mxGeometry x="1360" y="680" width="80" height="80" as="geometry" />
        </mxCell>
        <mxCell id="DAJft8NeWxyAzrpdu8we-450" value="B" style="ellipse;whiteSpace=wrap;html=1;aspect=fixed;fontSize=24;" vertex="1" parent="1">
          <mxGeometry x="1480" y="680" width="80" height="80" as="geometry" />
        </mxCell>
        <mxCell id="DAJft8NeWxyAzrpdu8we-451" value="C" style="ellipse;whiteSpace=wrap;html=1;aspect=fixed;fontSize=24;fillColor=#dae8fc;strokeColor=#6c8ebf;" vertex="1" parent="1">
          <mxGeometry x="1600" y="680" width="80" height="80" as="geometry" />
        </mxCell>
        <mxCell id="DAJft8NeWxyAzrpdu8we-452" value="D" style="ellipse;whiteSpace=wrap;html=1;aspect=fixed;fontSize=24;fillColor=#d5e8d4;strokeColor=#82b366;" vertex="1" parent="1">
          <mxGeometry x="1720" y="680" width="80" height="80" as="geometry" />
        </mxCell>
        <mxCell id="DAJft8NeWxyAzrpdu8we-453" value="E" style="ellipse;whiteSpace=wrap;html=1;aspect=fixed;fontSize=24;" vertex="1" parent="1">
          <mxGeometry x="1840" y="680" width="80" height="80" as="geometry" />
        </mxCell>
        <mxCell id="DAJft8NeWxyAzrpdu8we-454" value="A" style="ellipse;whiteSpace=wrap;html=1;aspect=fixed;fontSize=24;fillColor=#d5e8d4;strokeColor=#82b366;" vertex="1" parent="1">
          <mxGeometry x="1360" y="800" width="80" height="80" as="geometry" />
        </mxCell>
        <mxCell id="DAJft8NeWxyAzrpdu8we-455" value="D" style="ellipse;whiteSpace=wrap;html=1;aspect=fixed;fontSize=24;fillColor=#d5e8d4;strokeColor=#82b366;" vertex="1" parent="1">
          <mxGeometry x="1480" y="800" width="80" height="80" as="geometry" />
        </mxCell>
        <mxCell id="DAJft8NeWxyAzrpdu8we-456" value="C" style="ellipse;whiteSpace=wrap;html=1;aspect=fixed;fontSize=24;fillColor=#dae8fc;strokeColor=#6c8ebf;" vertex="1" parent="1">
          <mxGeometry x="1600" y="800" width="80" height="80" as="geometry" />
        </mxCell>
        <mxCell id="DAJft8NeWxyAzrpdu8we-457" value="B" style="ellipse;whiteSpace=wrap;html=1;aspect=fixed;fontSize=24;" vertex="1" parent="1">
          <mxGeometry x="1720" y="800" width="80" height="80" as="geometry" />
        </mxCell>
        <mxCell id="DAJft8NeWxyAzrpdu8we-458" value="F" style="ellipse;whiteSpace=wrap;html=1;aspect=fixed;fontSize=24;" vertex="1" parent="1">
          <mxGeometry x="1840" y="800" width="80" height="80" as="geometry" />
        </mxCell>
        <mxCell id="DAJft8NeWxyAzrpdu8we-459" value="oldArray" style="text;html=1;align=center;verticalAlign=middle;resizable=0;points=[];autosize=1;strokeColor=none;fillColor=none;fontSize=24;" vertex="1" parent="1">
          <mxGeometry x="1220" y="705" width="100" height="30" as="geometry" />
        </mxCell>
        <mxCell id="DAJft8NeWxyAzrpdu8we-460" value="newArray" style="text;html=1;align=center;verticalAlign=middle;resizable=0;points=[];autosize=1;strokeColor=none;fillColor=none;fontSize=24;" vertex="1" parent="1">
          <mxGeometry x="1210" y="825" width="120" height="30" as="geometry" />
        </mxCell>
        <mxCell id="DAJft8NeWxyAzrpdu8we-461" value="" style="ellipse;whiteSpace=wrap;html=1;aspect=fixed;fontSize=24;fillColor=#d5e8d4;strokeColor=#82b366;" vertex="1" parent="1">
          <mxGeometry x="2000" y="770" width="20" height="20" as="geometry" />
        </mxCell>
        <mxCell id="DAJft8NeWxyAzrpdu8we-462" value="&lt;font style=&quot;font-size: 10px&quot;&gt;无需操作&lt;/font&gt;" style="text;html=1;align=left;verticalAlign=middle;resizable=0;points=[];autosize=1;strokeColor=none;fillColor=none;fontSize=10;" vertex="1" parent="1">
          <mxGeometry x="2030" y="770" width="60" height="20" as="geometry" />
        </mxCell>
        <mxCell id="DAJft8NeWxyAzrpdu8we-463" value="" style="ellipse;whiteSpace=wrap;html=1;aspect=fixed;fontSize=24;fillColor=#dae8fc;strokeColor=#6c8ebf;" vertex="1" parent="1">
          <mxGeometry x="2000" y="800" width="20" height="20" as="geometry" />
        </mxCell>
        <mxCell id="DAJft8NeWxyAzrpdu8we-464" value="&lt;font style=&quot;font-size: 10px&quot;&gt;移动&lt;/font&gt;" style="text;html=1;align=left;verticalAlign=middle;resizable=0;points=[];autosize=1;strokeColor=none;fillColor=none;fontSize=10;" vertex="1" parent="1">
          <mxGeometry x="2030" y="800" width="40" height="20" as="geometry" />
        </mxCell>
        <mxCell id="DAJft8NeWxyAzrpdu8we-465" value="" style="ellipse;whiteSpace=wrap;html=1;aspect=fixed;fontSize=24;fillColor=#f8cecc;strokeColor=#b85450;" vertex="1" parent="1">
          <mxGeometry x="2000" y="860" width="20" height="20" as="geometry" />
        </mxCell>
        <mxCell id="DAJft8NeWxyAzrpdu8we-466" value="&lt;font style=&quot;font-size: 10px&quot;&gt;删除&lt;/font&gt;" style="text;html=1;align=left;verticalAlign=middle;resizable=0;points=[];autosize=1;strokeColor=none;fillColor=none;fontSize=10;" vertex="1" parent="1">
          <mxGeometry x="2030" y="860" width="40" height="20" as="geometry" />
        </mxCell>
        <mxCell id="DAJft8NeWxyAzrpdu8we-467" value="&lt;font style=&quot;font-size: 10px&quot;&gt;图例&lt;/font&gt;" style="text;html=1;align=left;verticalAlign=middle;resizable=0;points=[];autosize=1;strokeColor=none;fillColor=none;fontSize=10;" vertex="1" parent="1">
          <mxGeometry x="2000" y="740" width="40" height="20" as="geometry" />
        </mxCell>
        <mxCell id="DAJft8NeWxyAzrpdu8we-468" value="" style="ellipse;whiteSpace=wrap;html=1;aspect=fixed;fontSize=24;fillColor=#ffe6cc;strokeColor=#d79b00;" vertex="1" parent="1">
          <mxGeometry x="2000" y="830" width="20" height="20" as="geometry" />
        </mxCell>
        <mxCell id="DAJft8NeWxyAzrpdu8we-469" value="插入" style="text;html=1;align=left;verticalAlign=middle;resizable=0;points=[];autosize=1;fontSize=10;" vertex="1" parent="1">
          <mxGeometry x="2030" y="830" width="40" height="20" as="geometry" />
        </mxCell>
        <mxCell id="DAJft8NeWxyAzrpdu8we-470" value="" style="ellipse;whiteSpace=wrap;html=1;aspect=fixed;fontSize=24;fillColor=#d5e8d4;strokeColor=#82b366;dashed=1;" vertex="1" parent="1">
          <mxGeometry x="1360" y="1000" width="80" height="80" as="geometry" />
        </mxCell>
        <mxCell id="DAJft8NeWxyAzrpdu8we-471" value="B" style="ellipse;whiteSpace=wrap;html=1;aspect=fixed;fontSize=24;" vertex="1" parent="1">
          <mxGeometry x="1480" y="1000" width="80" height="80" as="geometry" />
        </mxCell>
        <mxCell id="DAJft8NeWxyAzrpdu8we-472" value="" style="ellipse;whiteSpace=wrap;html=1;aspect=fixed;fontSize=24;fillColor=#dae8fc;strokeColor=#6c8ebf;dashed=1;" vertex="1" parent="1">
          <mxGeometry x="1600" y="1000" width="80" height="80" as="geometry" />
        </mxCell>
        <mxCell id="DAJft8NeWxyAzrpdu8we-473" value="D" style="ellipse;whiteSpace=wrap;html=1;aspect=fixed;fontSize=24;fillColor=#d5e8d4;strokeColor=#82b366;" vertex="1" parent="1">
          <mxGeometry x="1720" y="1000" width="80" height="80" as="geometry" />
        </mxCell>
        <mxCell id="DAJft8NeWxyAzrpdu8we-474" value="" style="ellipse;whiteSpace=wrap;html=1;aspect=fixed;fontSize=24;dashed=1;" vertex="1" parent="1">
          <mxGeometry x="1840" y="1000" width="80" height="80" as="geometry" />
        </mxCell>
        <mxCell id="DAJft8NeWxyAzrpdu8we-475" value="" style="ellipse;whiteSpace=wrap;html=1;aspect=fixed;fontSize=24;fillColor=#d5e8d4;strokeColor=#82b366;dashed=1;" vertex="1" parent="1">
          <mxGeometry x="1360" y="1120" width="80" height="80" as="geometry" />
        </mxCell>
        <mxCell id="DAJft8NeWxyAzrpdu8we-476" value="D" style="ellipse;whiteSpace=wrap;html=1;aspect=fixed;fontSize=24;fillColor=#d5e8d4;strokeColor=#82b366;" vertex="1" parent="1">
          <mxGeometry x="1480" y="1120" width="80" height="80" as="geometry" />
        </mxCell>
        <mxCell id="DAJft8NeWxyAzrpdu8we-477" value="" style="ellipse;whiteSpace=wrap;html=1;aspect=fixed;fontSize=24;fillColor=#dae8fc;strokeColor=#6c8ebf;dashed=1;" vertex="1" parent="1">
          <mxGeometry x="1600" y="1120" width="80" height="80" as="geometry" />
        </mxCell>
        <mxCell id="DAJft8NeWxyAzrpdu8we-478" value="B" style="ellipse;whiteSpace=wrap;html=1;aspect=fixed;fontSize=24;" vertex="1" parent="1">
          <mxGeometry x="1720" y="1120" width="80" height="80" as="geometry" />
        </mxCell>
        <mxCell id="DAJft8NeWxyAzrpdu8we-479" value="" style="ellipse;whiteSpace=wrap;html=1;aspect=fixed;fontSize=24;dashed=1;" vertex="1" parent="1">
          <mxGeometry x="1840" y="1120" width="80" height="80" as="geometry" />
        </mxCell>
        <mxCell id="DAJft8NeWxyAzrpdu8we-480" value="oldArray" style="text;html=1;align=center;verticalAlign=middle;resizable=0;points=[];autosize=1;strokeColor=none;fillColor=none;fontSize=24;" vertex="1" parent="1">
          <mxGeometry x="1220" y="1025" width="100" height="30" as="geometry" />
        </mxCell>
        <mxCell id="DAJft8NeWxyAzrpdu8we-481" value="newArray" style="text;html=1;align=center;verticalAlign=middle;resizable=0;points=[];autosize=1;strokeColor=none;fillColor=none;fontSize=24;" vertex="1" parent="1">
          <mxGeometry x="1210" y="1145" width="120" height="30" as="geometry" />
        </mxCell>
        <mxCell id="DAJft8NeWxyAzrpdu8we-482" value="A" style="ellipse;whiteSpace=wrap;html=1;aspect=fixed;fontSize=24;fillColor=#d5e8d4;strokeColor=#82b366;" vertex="1" parent="1">
          <mxGeometry x="1360" y="1320" width="80" height="80" as="geometry" />
        </mxCell>
        <mxCell id="DAJft8NeWxyAzrpdu8we-483" value="B" style="ellipse;whiteSpace=wrap;html=1;aspect=fixed;fontSize=24;fillColor=#dae8fc;strokeColor=#6c8ebf;" vertex="1" parent="1">
          <mxGeometry x="1480" y="1320" width="80" height="80" as="geometry" />
        </mxCell>
        <mxCell id="DAJft8NeWxyAzrpdu8we-484" value="C" style="ellipse;whiteSpace=wrap;html=1;aspect=fixed;fontSize=24;fillColor=#dae8fc;strokeColor=#6c8ebf;" vertex="1" parent="1">
          <mxGeometry x="1600" y="1320" width="80" height="80" as="geometry" />
        </mxCell>
        <mxCell id="DAJft8NeWxyAzrpdu8we-485" value="D" style="ellipse;whiteSpace=wrap;html=1;aspect=fixed;fontSize=24;fillColor=#d5e8d4;strokeColor=#82b366;" vertex="1" parent="1">
          <mxGeometry x="1720" y="1320" width="80" height="80" as="geometry" />
        </mxCell>
        <mxCell id="DAJft8NeWxyAzrpdu8we-486" value="E" style="ellipse;whiteSpace=wrap;html=1;aspect=fixed;fontSize=24;" vertex="1" parent="1">
          <mxGeometry x="1840" y="1320" width="80" height="80" as="geometry" />
        </mxCell>
        <mxCell id="DAJft8NeWxyAzrpdu8we-487" value="A" style="ellipse;whiteSpace=wrap;html=1;aspect=fixed;fontSize=24;fillColor=#d5e8d4;strokeColor=#82b366;" vertex="1" parent="1">
          <mxGeometry x="1360" y="1440" width="80" height="80" as="geometry" />
        </mxCell>
        <mxCell id="DAJft8NeWxyAzrpdu8we-488" value="D" style="ellipse;whiteSpace=wrap;html=1;aspect=fixed;fontSize=24;fillColor=#d5e8d4;strokeColor=#82b366;" vertex="1" parent="1">
          <mxGeometry x="1480" y="1440" width="80" height="80" as="geometry" />
        </mxCell>
        <mxCell id="DAJft8NeWxyAzrpdu8we-489" value="C" style="ellipse;whiteSpace=wrap;html=1;aspect=fixed;fontSize=24;fillColor=#dae8fc;strokeColor=#6c8ebf;" vertex="1" parent="1">
          <mxGeometry x="1600" y="1440" width="80" height="80" as="geometry" />
        </mxCell>
        <mxCell id="DAJft8NeWxyAzrpdu8we-490" value="B" style="ellipse;whiteSpace=wrap;html=1;aspect=fixed;fontSize=24;fillColor=#dae8fc;strokeColor=#6c8ebf;" vertex="1" parent="1">
          <mxGeometry x="1720" y="1440" width="80" height="80" as="geometry" />
        </mxCell>
        <mxCell id="DAJft8NeWxyAzrpdu8we-491" value="F" style="ellipse;whiteSpace=wrap;html=1;aspect=fixed;fontSize=24;" vertex="1" parent="1">
          <mxGeometry x="1840" y="1440" width="80" height="80" as="geometry" />
        </mxCell>
        <mxCell id="DAJft8NeWxyAzrpdu8we-492" value="oldArray" style="text;html=1;align=center;verticalAlign=middle;resizable=0;points=[];autosize=1;strokeColor=none;fillColor=none;fontSize=24;" vertex="1" parent="1">
          <mxGeometry x="1220" y="1345" width="100" height="30" as="geometry" />
        </mxCell>
        <mxCell id="DAJft8NeWxyAzrpdu8we-493" value="newArray" style="text;html=1;align=center;verticalAlign=middle;resizable=0;points=[];autosize=1;strokeColor=none;fillColor=none;fontSize=24;" vertex="1" parent="1">
          <mxGeometry x="1210" y="1465" width="120" height="30" as="geometry" />
        </mxCell>
        <mxCell id="DAJft8NeWxyAzrpdu8we-494" value="" style="shape=flexArrow;endArrow=classic;html=1;rounded=0;fontSize=10;strokeWidth=2;verticalAlign=middle;" edge="1" parent="1">
          <mxGeometry width="50" height="50" relative="1" as="geometry">
            <mxPoint x="1640" y="890" as="sourcePoint" />
            <mxPoint x="1640" y="990" as="targetPoint" />
          </mxGeometry>
        </mxCell>
        <mxCell id="DAJft8NeWxyAzrpdu8we-495" value="相对位置" style="edgeLabel;html=1;align=center;verticalAlign=middle;resizable=0;points=[];fontSize=24;" vertex="1" connectable="0" parent="DAJft8NeWxyAzrpdu8we-494">
          <mxGeometry x="-0.2106" y="-3" relative="1" as="geometry">
            <mxPoint x="3" as="offset" />
          </mxGeometry>
        </mxCell>
        <mxCell id="DAJft8NeWxyAzrpdu8we-496" value="" style="shape=flexArrow;endArrow=classic;html=1;rounded=0;fontSize=10;strokeWidth=2;verticalAlign=middle;" edge="1" parent="1">
          <mxGeometry width="50" height="50" relative="1" as="geometry">
            <mxPoint x="1639.6999999999998" y="1210" as="sourcePoint" />
            <mxPoint x="1639.6999999999998" y="1310" as="targetPoint" />
          </mxGeometry>
        </mxCell>
        <mxCell id="DAJft8NeWxyAzrpdu8we-497" value="最终结果" style="edgeLabel;html=1;align=center;verticalAlign=middle;resizable=0;points=[];fontSize=24;" vertex="1" connectable="0" parent="DAJft8NeWxyAzrpdu8we-496">
          <mxGeometry x="-0.2106" y="-3" relative="1" as="geometry">
            <mxPoint x="3" as="offset" />
          </mxGeometry>
        </mxCell>
        <mxCell id="DAJft8NeWxyAzrpdu8we-510" value="A" style="ellipse;whiteSpace=wrap;html=1;aspect=fixed;fontSize=24;fillColor=#d5e8d4;strokeColor=#82b366;" vertex="1" parent="1">
          <mxGeometry x="1360" y="1640" width="80" height="80" as="geometry" />
        </mxCell>
        <mxCell id="DAJft8NeWxyAzrpdu8we-511" value="B" style="ellipse;whiteSpace=wrap;html=1;aspect=fixed;fontSize=24;fillColor=#dae8fc;strokeColor=#6c8ebf;" vertex="1" parent="1">
          <mxGeometry x="1480" y="1640" width="80" height="80" as="geometry" />
        </mxCell>
        <mxCell id="DAJft8NeWxyAzrpdu8we-512" value="C" style="ellipse;whiteSpace=wrap;html=1;aspect=fixed;fontSize=24;fillColor=#dae8fc;strokeColor=#6c8ebf;" vertex="1" parent="1">
          <mxGeometry x="1600" y="1640" width="80" height="80" as="geometry" />
        </mxCell>
        <mxCell id="DAJft8NeWxyAzrpdu8we-513" value="D" style="ellipse;whiteSpace=wrap;html=1;aspect=fixed;fontSize=24;fillColor=#d5e8d4;strokeColor=#82b366;" vertex="1" parent="1">
          <mxGeometry x="1720" y="1640" width="80" height="80" as="geometry" />
        </mxCell>
        <mxCell id="DAJft8NeWxyAzrpdu8we-514" value="E" style="ellipse;whiteSpace=wrap;html=1;aspect=fixed;fontSize=24;" vertex="1" parent="1">
          <mxGeometry x="1840" y="1640" width="80" height="80" as="geometry" />
        </mxCell>
        <mxCell id="DAJft8NeWxyAzrpdu8we-515" value="A" style="ellipse;whiteSpace=wrap;html=1;aspect=fixed;fontSize=24;fillColor=#d5e8d4;strokeColor=#82b366;" vertex="1" parent="1">
          <mxGeometry x="1360" y="1760" width="80" height="80" as="geometry" />
        </mxCell>
        <mxCell id="DAJft8NeWxyAzrpdu8we-516" value="D" style="ellipse;whiteSpace=wrap;html=1;aspect=fixed;fontSize=24;fillColor=#d5e8d4;strokeColor=#82b366;" vertex="1" parent="1">
          <mxGeometry x="1480" y="1760" width="80" height="80" as="geometry" />
        </mxCell>
        <mxCell id="DAJft8NeWxyAzrpdu8we-517" value="C" style="ellipse;whiteSpace=wrap;html=1;aspect=fixed;fontSize=24;fillColor=#dae8fc;strokeColor=#6c8ebf;" vertex="1" parent="1">
          <mxGeometry x="1600" y="1760" width="80" height="80" as="geometry" />
        </mxCell>
        <mxCell id="DAJft8NeWxyAzrpdu8we-518" value="B" style="ellipse;whiteSpace=wrap;html=1;aspect=fixed;fontSize=24;fillColor=#dae8fc;strokeColor=#6c8ebf;" vertex="1" parent="1">
          <mxGeometry x="1720" y="1760" width="80" height="80" as="geometry" />
        </mxCell>
        <mxCell id="DAJft8NeWxyAzrpdu8we-519" value="F" style="ellipse;whiteSpace=wrap;html=1;aspect=fixed;fontSize=24;fillColor=#ffe6cc;strokeColor=#d79b00;" vertex="1" parent="1">
          <mxGeometry x="1840" y="1760" width="80" height="80" as="geometry" />
        </mxCell>
        <mxCell id="DAJft8NeWxyAzrpdu8we-520" value="oldArray" style="text;html=1;align=center;verticalAlign=middle;resizable=0;points=[];autosize=1;strokeColor=none;fillColor=none;fontSize=24;" vertex="1" parent="1">
          <mxGeometry x="1220" y="1665" width="100" height="30" as="geometry" />
        </mxCell>
        <mxCell id="DAJft8NeWxyAzrpdu8we-521" value="newArray" style="text;html=1;align=center;verticalAlign=middle;resizable=0;points=[];autosize=1;strokeColor=none;fillColor=none;fontSize=24;" vertex="1" parent="1">
          <mxGeometry x="1210" y="1785" width="120" height="30" as="geometry" />
        </mxCell>
        <mxCell id="DAJft8NeWxyAzrpdu8we-522" value="" style="ellipse;whiteSpace=wrap;html=1;aspect=fixed;fontSize=24;fillColor=#d5e8d4;strokeColor=#82b366;" vertex="1" parent="1">
          <mxGeometry x="2000" y="1730" width="20" height="20" as="geometry" />
        </mxCell>
        <mxCell id="DAJft8NeWxyAzrpdu8we-523" value="&lt;font style=&quot;font-size: 10px&quot;&gt;无需操作&lt;/font&gt;" style="text;html=1;align=left;verticalAlign=middle;resizable=0;points=[];autosize=1;strokeColor=none;fillColor=none;fontSize=10;" vertex="1" parent="1">
          <mxGeometry x="2030" y="1730" width="60" height="20" as="geometry" />
        </mxCell>
        <mxCell id="DAJft8NeWxyAzrpdu8we-524" value="" style="ellipse;whiteSpace=wrap;html=1;aspect=fixed;fontSize=24;fillColor=#dae8fc;strokeColor=#6c8ebf;" vertex="1" parent="1">
          <mxGeometry x="2000" y="1760" width="20" height="20" as="geometry" />
        </mxCell>
        <mxCell id="DAJft8NeWxyAzrpdu8we-525" value="&lt;font style=&quot;font-size: 10px&quot;&gt;移动&lt;/font&gt;" style="text;html=1;align=left;verticalAlign=middle;resizable=0;points=[];autosize=1;strokeColor=none;fillColor=none;fontSize=10;" vertex="1" parent="1">
          <mxGeometry x="2030" y="1760" width="40" height="20" as="geometry" />
        </mxCell>
        <mxCell id="DAJft8NeWxyAzrpdu8we-526" value="" style="ellipse;whiteSpace=wrap;html=1;aspect=fixed;fontSize=24;fillColor=#f8cecc;strokeColor=#b85450;" vertex="1" parent="1">
          <mxGeometry x="2000" y="1820" width="20" height="20" as="geometry" />
        </mxCell>
        <mxCell id="DAJft8NeWxyAzrpdu8we-527" value="&lt;font style=&quot;font-size: 10px&quot;&gt;删除&lt;/font&gt;" style="text;html=1;align=left;verticalAlign=middle;resizable=0;points=[];autosize=1;strokeColor=none;fillColor=none;fontSize=10;" vertex="1" parent="1">
          <mxGeometry x="2030" y="1820" width="40" height="20" as="geometry" />
        </mxCell>
        <mxCell id="DAJft8NeWxyAzrpdu8we-528" value="&lt;font style=&quot;font-size: 10px&quot;&gt;图例&lt;/font&gt;" style="text;html=1;align=left;verticalAlign=middle;resizable=0;points=[];autosize=1;strokeColor=none;fillColor=none;fontSize=10;" vertex="1" parent="1">
          <mxGeometry x="2000" y="1700" width="40" height="20" as="geometry" />
        </mxCell>
        <mxCell id="DAJft8NeWxyAzrpdu8we-529" value="" style="ellipse;whiteSpace=wrap;html=1;aspect=fixed;fontSize=24;fillColor=#ffe6cc;strokeColor=#d79b00;" vertex="1" parent="1">
          <mxGeometry x="2000" y="1790" width="20" height="20" as="geometry" />
        </mxCell>
        <mxCell id="DAJft8NeWxyAzrpdu8we-530" value="插入" style="text;html=1;align=left;verticalAlign=middle;resizable=0;points=[];autosize=1;fontSize=10;" vertex="1" parent="1">
          <mxGeometry x="2030" y="1790" width="40" height="20" as="geometry" />
        </mxCell>
        <mxCell id="DAJft8NeWxyAzrpdu8we-531" value="A" style="ellipse;whiteSpace=wrap;html=1;aspect=fixed;fontSize=24;fillColor=#d5e8d4;strokeColor=#82b366;" vertex="1" parent="1">
          <mxGeometry x="1360" y="1960" width="80" height="80" as="geometry" />
        </mxCell>
        <mxCell id="DAJft8NeWxyAzrpdu8we-532" value="B" style="ellipse;whiteSpace=wrap;html=1;aspect=fixed;fontSize=24;fillColor=#dae8fc;strokeColor=#6c8ebf;" vertex="1" parent="1">
          <mxGeometry x="1480" y="1960" width="80" height="80" as="geometry" />
        </mxCell>
        <mxCell id="DAJft8NeWxyAzrpdu8we-533" value="C" style="ellipse;whiteSpace=wrap;html=1;aspect=fixed;fontSize=24;fillColor=#dae8fc;strokeColor=#6c8ebf;" vertex="1" parent="1">
          <mxGeometry x="1600" y="1960" width="80" height="80" as="geometry" />
        </mxCell>
        <mxCell id="DAJft8NeWxyAzrpdu8we-534" value="D" style="ellipse;whiteSpace=wrap;html=1;aspect=fixed;fontSize=24;fillColor=#d5e8d4;strokeColor=#82b366;" vertex="1" parent="1">
          <mxGeometry x="1720" y="1960" width="80" height="80" as="geometry" />
        </mxCell>
        <mxCell id="DAJft8NeWxyAzrpdu8we-535" value="E" style="ellipse;whiteSpace=wrap;html=1;aspect=fixed;fontSize=24;fillColor=#f8cecc;strokeColor=#b85450;" vertex="1" parent="1">
          <mxGeometry x="1840" y="1960" width="80" height="80" as="geometry" />
        </mxCell>
        <mxCell id="DAJft8NeWxyAzrpdu8we-536" value="A" style="ellipse;whiteSpace=wrap;html=1;aspect=fixed;fontSize=24;fillColor=#d5e8d4;strokeColor=#82b366;" vertex="1" parent="1">
          <mxGeometry x="1360" y="2080" width="80" height="80" as="geometry" />
        </mxCell>
        <mxCell id="DAJft8NeWxyAzrpdu8we-537" value="D" style="ellipse;whiteSpace=wrap;html=1;aspect=fixed;fontSize=24;fillColor=#d5e8d4;strokeColor=#82b366;" vertex="1" parent="1">
          <mxGeometry x="1480" y="2080" width="80" height="80" as="geometry" />
        </mxCell>
        <mxCell id="DAJft8NeWxyAzrpdu8we-538" value="C" style="ellipse;whiteSpace=wrap;html=1;aspect=fixed;fontSize=24;fillColor=#dae8fc;strokeColor=#6c8ebf;" vertex="1" parent="1">
          <mxGeometry x="1600" y="2080" width="80" height="80" as="geometry" />
        </mxCell>
        <mxCell id="DAJft8NeWxyAzrpdu8we-539" value="B" style="ellipse;whiteSpace=wrap;html=1;aspect=fixed;fontSize=24;fillColor=#dae8fc;strokeColor=#6c8ebf;" vertex="1" parent="1">
          <mxGeometry x="1720" y="2080" width="80" height="80" as="geometry" />
        </mxCell>
        <mxCell id="DAJft8NeWxyAzrpdu8we-540" value="F" style="ellipse;whiteSpace=wrap;html=1;aspect=fixed;fontSize=24;fillColor=#ffe6cc;strokeColor=#d79b00;" vertex="1" parent="1">
          <mxGeometry x="1840" y="2080" width="80" height="80" as="geometry" />
        </mxCell>
        <mxCell id="DAJft8NeWxyAzrpdu8we-541" value="oldArray" style="text;html=1;align=center;verticalAlign=middle;resizable=0;points=[];autosize=1;strokeColor=none;fillColor=none;fontSize=24;" vertex="1" parent="1">
          <mxGeometry x="1220" y="1985" width="100" height="30" as="geometry" />
        </mxCell>
        <mxCell id="DAJft8NeWxyAzrpdu8we-542" value="newArray" style="text;html=1;align=center;verticalAlign=middle;resizable=0;points=[];autosize=1;strokeColor=none;fillColor=none;fontSize=24;" vertex="1" parent="1">
          <mxGeometry x="1210" y="2105" width="120" height="30" as="geometry" />
        </mxCell>
        <mxCell id="DAJft8NeWxyAzrpdu8we-543" value="" style="ellipse;whiteSpace=wrap;html=1;aspect=fixed;fontSize=24;fillColor=#d5e8d4;strokeColor=#82b366;" vertex="1" parent="1">
          <mxGeometry x="2000" y="2050" width="20" height="20" as="geometry" />
        </mxCell>
        <mxCell id="DAJft8NeWxyAzrpdu8we-544" value="&lt;font style=&quot;font-size: 10px&quot;&gt;无需操作&lt;/font&gt;" style="text;html=1;align=left;verticalAlign=middle;resizable=0;points=[];autosize=1;strokeColor=none;fillColor=none;fontSize=10;" vertex="1" parent="1">
          <mxGeometry x="2030" y="2050" width="60" height="20" as="geometry" />
        </mxCell>
        <mxCell id="DAJft8NeWxyAzrpdu8we-545" value="" style="ellipse;whiteSpace=wrap;html=1;aspect=fixed;fontSize=24;fillColor=#dae8fc;strokeColor=#6c8ebf;" vertex="1" parent="1">
          <mxGeometry x="2000" y="2080" width="20" height="20" as="geometry" />
        </mxCell>
        <mxCell id="DAJft8NeWxyAzrpdu8we-546" value="&lt;font style=&quot;font-size: 10px&quot;&gt;移动&lt;/font&gt;" style="text;html=1;align=left;verticalAlign=middle;resizable=0;points=[];autosize=1;strokeColor=none;fillColor=none;fontSize=10;" vertex="1" parent="1">
          <mxGeometry x="2030" y="2080" width="40" height="20" as="geometry" />
        </mxCell>
        <mxCell id="DAJft8NeWxyAzrpdu8we-547" value="" style="ellipse;whiteSpace=wrap;html=1;aspect=fixed;fontSize=24;fillColor=#f8cecc;strokeColor=#b85450;" vertex="1" parent="1">
          <mxGeometry x="2000" y="2140" width="20" height="20" as="geometry" />
        </mxCell>
        <mxCell id="DAJft8NeWxyAzrpdu8we-548" value="&lt;font style=&quot;font-size: 10px&quot;&gt;删除&lt;/font&gt;" style="text;html=1;align=left;verticalAlign=middle;resizable=0;points=[];autosize=1;strokeColor=none;fillColor=none;fontSize=10;" vertex="1" parent="1">
          <mxGeometry x="2030" y="2140" width="40" height="20" as="geometry" />
        </mxCell>
        <mxCell id="DAJft8NeWxyAzrpdu8we-549" value="&lt;font style=&quot;font-size: 10px&quot;&gt;图例&lt;/font&gt;" style="text;html=1;align=left;verticalAlign=middle;resizable=0;points=[];autosize=1;strokeColor=none;fillColor=none;fontSize=10;" vertex="1" parent="1">
          <mxGeometry x="2000" y="2020" width="40" height="20" as="geometry" />
        </mxCell>
        <mxCell id="DAJft8NeWxyAzrpdu8we-550" value="" style="ellipse;whiteSpace=wrap;html=1;aspect=fixed;fontSize=24;fillColor=#ffe6cc;strokeColor=#d79b00;" vertex="1" parent="1">
          <mxGeometry x="2000" y="2110" width="20" height="20" as="geometry" />
        </mxCell>
        <mxCell id="DAJft8NeWxyAzrpdu8we-551" value="插入" style="text;html=1;align=left;verticalAlign=middle;resizable=0;points=[];autosize=1;fontSize=10;" vertex="1" parent="1">
          <mxGeometry x="2030" y="2110" width="40" height="20" as="geometry" />
        </mxCell>
      </root>
    </mxGraphModel>
  </diagram>
</mxfile>
